<svg xmlns="http://www.w3.org/2000/svg" viewBox="0 0 48 48"><g data-name="05-test"><path d="M4 42h8v2H4zM4 38h4v2H4z"/><path d="m47.7 25.961-1.449-1.414a1 1 0 0 0-.005-1.424l-2.909-2.839a1 1 0 0 0-1.4 0L34 28.03V3a3 3 0 0 0-3-3H10a.639.639 0 0 0-.063.013.945.945 0 0 0-.257.051c-.032.011-.063.019-.094.036a1 1 0 0 0-.293.2l-9 9A1 1 0 0 0 0 10v35a3 3 0 0 0 3 3h28a3 3 0 0 0 3-3v-8.5l10.819-10.554.749.731-5.085 4.962 1.4 1.432 5.817-5.678a1 1 0 0 0 0-1.432zM32 45a1 1 0 0 1-1 1H3a1 1 0 0 1-1-1V10.414l7-7V9H6v2h4a1 1 0 0 0 1-1V2h20a1 1 0 0 1 1 1v26.982l-7.517 7.334a1.013 1.013 0 0 0-.215.316L22.084 42.6A1 1 0 0 0 23 44a.986.986 0 0 0 .386-.078L28.46 41.8l.014-.006a.983.983 0 0 0 .313-.2L32 38.454zm-3.909-5.526-1.478-1.442 11.66-11.377L39.75 28.1zM41.182 26.7 39.7 25.258l2.937-2.858 1.477 1.442z"/><path d="M8 14a4 4 0 1 0 4 4 4 4 0 0 0-4-4zm0 6a2 2 0 1 1 2-2 2 2 0 0 1-2 2zM8 25a4 4 0 1 0 4 4 4 4 0 0 0-4-4zm-2 4a2 2 0 0 1 2-2 1.96 1.96 0 0 1 .511.075l-2.436 2.436A1.96 1.96 0 0 1 6 29zm2 2a1.96 1.96 0 0 1-.511-.075l2.436-2.436A1.96 1.96 0 0 1 10 29a2 2 0 0 1-2 2zM15 15h8v2h-8zM15 19h13v2H15zM15 26h8v2h-8zM15 30h13v2H15zM26 4h4v2h-4zM22 8h8v2h-8z"/></g></svg>
