<svg xmlns="http://www.w3.org/2000/svg" viewBox="0 0 64 64"><g data-name="Folder File"><path d="M57 23h-3V11a1.11 1.11 0 0 0-.293-.707l-10-10A1.111 1.111 0 0 0 43 0H11a1 1 0 0 0-1 1v19H7a5.006 5.006 0 0 0-5 5v34a5.006 5.006 0 0 0 5 5h50a5.006 5.006 0 0 0 5-5V28a5.006 5.006 0 0 0-5-5zm-6.414-13H44V3.414zM12 2h30v9a1 1 0 0 0 1 1h9v18H31.922a2.984 2.984 0 0 1-2.341-1.125l-3.334-4.167-1.665-2.081c-.023-.028-.049-.052-.072-.08A6.948 6.948 0 0 0 19.12 20H12zm48 57a3 3 0 0 1-3 3H7a3 3 0 0 1-3-3V25a3 3 0 0 1 3-3h12.116a5.037 5.037 0 0 1 3.814 1.776c.029.035.062.065.091.1l5 6.247A5 5 0 0 0 31.92 32H57a1 1 0 0 0 0-2h-3v-5h3a3 3 0 0 1 3 3z" style="fill:#fff"/><path d="M16 7h22a1 1 0 0 0 0-2H16a1 1 0 0 0 0 2zM16 12h22a1 1 0 0 0 0-2H16a1 1 0 0 0 0 2zM49 16a1 1 0 0 0-1-1H16a1 1 0 0 0 0 2h32a1 1 0 0 0 1-1zM48 20H28a1 1 0 0 0 0 2h20a1 1 0 0 0 0-2zM48 25H31a1 1 0 0 0 0 2h17a1 1 0 0 0 0-2z" style="fill:#fff"/></g></svg>
