<svg xmlns="http://www.w3.org/2000/svg" viewBox="0 0 64 64"><g data-name="Calendar Graduation"><path d="M58 10h-1V8a4 4 0 0 0-8 0v2h-6V8a4 4 0 0 0-8 0v2h-6V8a4 4 0 0 0-8 0v2h-6V8a4 4 0 0 0-8 0v2H6a6.006 6.006 0 0 0-6 6v38a6.006 6.006 0 0 0 6 6h52a6.006 6.006 0 0 0 6-6V16a6.006 6.006 0 0 0-6-6zm-7-2a2 2 0 0 1 4 0v6a2 2 0 0 1-4 0zM37 8a2 2 0 0 1 4 0v6a2 2 0 0 1-4 0zM23 8a2 2 0 0 1 4 0v6a2 2 0 0 1-4 0zM9 8a2 2 0 0 1 4 0v6a2 2 0 0 1-4 0zm-3 4h1v2a4 4 0 0 0 8 0v-2h6v2a4 4 0 0 0 8 0v-2h6v2a4 4 0 0 0 8 0v-2h6v2a4 4 0 0 0 8 0v-2h1a4 4 0 0 1 4 4v6H2v-6a4 4 0 0 1 4-4zm52 46H6a4 4 0 0 1-4-4V24h60v30a4 4 0 0 1-4 4z" style="fill:#fff"/><path d="m49.426 35.1-17-8a1 1 0 0 0-.852 0l-17 8a1 1 0 0 0 0 1.81L20 39.458v9.362a1 1 0 0 0 .574.905l11 5.18a1 1 0 0 0 .852 0l11-5.18A1 1 0 0 0 44 48.82v-9.362l4-1.882V50a1 1 0 0 0 2 0V36a1.059 1.059 0 0 0-.574-.9zM42 48.186 32 52.9l-10-4.714V40.4l9.574 4.506a1 1 0 0 0 .852 0L42 40.4zM32 42.9l-10.574-4.98a.2.2 0 0 0-.026-.008L17.349 36 32 29.105 46.651 36c-.697.328-4.084 1.919-14.651 6.9z" style="fill:#fff"/></g></svg>
