<?xml version="1.0" standalone="no"?>
<!DOCTYPE svg PUBLIC "-//W3C//DTD SVG 20010904//EN"
 "http://www.w3.org/TR/2001/REC-SVG-20010904/DTD/svg10.dtd">
<svg version="1.0" xmlns="http://www.w3.org/2000/svg"
 width="230.000000pt" height="219.000000pt" viewBox="0 0 230.000000 219.000000"
 preserveAspectRatio="xMidYMid meet">

<g transform="translate(0.000000,219.000000) scale(0.100000,-0.100000)"
fill="#F0F0F0" stroke="none">
<path d="M1837 2038 c-62 -79 -166 -212 -231 -296 -100 -130 -122 -153 -140
-148 -171 47 -441 48 -611 3 -199 -52 -359 -125 -542 -247 -120 -79 -261 -194
-296 -241 -26 -36 -16 -52 80 -130 163 -131 392 -263 566 -324 42 -15 77 -30
77 -32 0 -2 -73 -99 -163 -216 -232 -303 -231 -301 -218 -325 16 -30 49 -37
73 -15 11 10 105 126 208 258 103 132 195 246 204 254 13 11 29 11 98 0 123
-21 340 -16 465 10 268 55 529 182 781 378 45 35 90 76 99 89 15 24 15 27 -4
52 -30 41 -162 152 -260 219 -105 72 -239 147 -345 193 -43 18 -78 37 -78 41
0 4 55 78 122 166 313 408 315 412 286 441 -32 32 -56 14 -171 -130z m-1012
-602 c-90 -88 -135 -183 -142 -300 -9 -135 23 -231 111 -340 43 -52 44 -55 26
-71 -17 -15 -24 -14 -116 21 -176 65 -424 206 -537 305 l-39 34 69 56 c165
135 393 266 573 329 124 43 130 40 55 -34z m820 -12 c148 -64 303 -160 457
-283 32 -25 58 -52 58 -59 0 -33 -286 -215 -462 -294 -98 -44 -261 -98 -295
-98 -8 0 18 31 59 69 81 76 125 150 148 250 26 111 -6 258 -79 362 -37 53 -39
58 -25 78 18 25 22 24 139 -25z m-390 -76 c14 -6 25 -15 25 -20 0 -10 -286
-384 -301 -393 -14 -9 -46 33 -64 84 -47 137 23 285 157 333 57 20 134 18 183
-4z m137 -135 c65 -146 -22 -318 -178 -354 -52 -12 -144 -5 -144 10 0 13 288
391 297 391 2 0 14 -21 25 -47z"/>
</g>
</svg>
