<svg id='Student_Male_48' width='48' height='48' viewBox='0 0 48 48' xmlns='http://www.w3.org/2000/svg' xmlns:xlink='http://www.w3.org/1999/xlink'><rect width='48' height='48' stroke='none' fill='#fff' opacity='0'/>


<g transform="matrix(1 0 0 1 24 24)" >
<path style="stroke: none; stroke-width: 1; stroke-dasharray: none; stroke-linecap: butt; stroke-dashoffset: 0; stroke-linejoin: miter; stroke-miterlimit: 4; fill: #fff; fill-rule: nonzero; opacity: 1;" transform=" translate(-24, -22)" d="M 24.042969 0 C 23.914069776278268 -0.005088522386664832 23.785403407797293 0.014808299335240457 23.664062 0.05859374999999989 L 9.6640625 5.0585938 C 9.289639743379816 5.191802544370665 9.029616200295283 5.534064858076716 9.00166289535088 5.9304933926129575 C 8.973709590406475 6.3269219271492 9.183131242099973 6.702286158454767 9.5351562 6.8867188 L 15 9.7480469 L 15 13 L 15 14 C 15 19.450215 18.972157 24 24 24 C 29.027843 24 33 19.450215 33 14 L 33 13.289062 C 33.05080816563167 13.110310974436175 33.05080816563167 12.920939025563825 33 12.742188 L 33 9.8476562 L 34.363281 9.3613281 C 34.70005617303808 9.24137941068582 34.947236195554886 8.950846091548987 35.011681050909374 8.59920413463634 C 35.076125906263854 8.247562177723692 34.94804116246424 7.888254688981998 34.67569049004301 7.6566724865684295 C 34.40333981762178 7.4250902841548605 34.02811550653395 7.356429600872913 33.691406 7.4765625 L 31.664062 8.2011719 C 31.266046754803423 8.34316194833432 31.000231745527962 8.719994078142943 31 9.1425781 L 31 11.712891 C 29.664661 11.401689 27.38126 11 24 11 C 22.432423 11 21.080349 11.08617 19.949219 11.208984 C 19.590859335804744 11.243875029485796 19.27891596144968 11.468703262879249 19.13248128122173 11.797634740982595 C 18.986046600993774 12.126566219085941 19.027726714014122 12.508821593820494 19.24160916539956 12.798465046793407 C 19.455491616784993 13.08810849976632 19.808557944728673 13.240425837608106 20.166016 13.197266 C 21.226885 13.08208 22.505577 13 24 13 C 27.704717 13 29.979925 13.477355 31 13.75 L 31 14 C 31 18.489785 27.812157 22 24 22 C 20.187843 22 17 18.489785 17 14 L 17 13 L 17 9.1425781 C 16.999744654375622 8.771164110978727 16.793680885975032 8.430481891799257 16.464844 8.2578125 L 12.488281 6.1738281 L 24 2.0625 L 37 6.7050781 L 37 16 C 36.99489971045452 16.360635916577568 37.184375296169335 16.696081364571608 37.49587284971433 16.877887721486516 C 37.80737040325933 17.059694078401428 38.19262959674067 17.059694078401428 38.50412715028567 16.877887721486516 C 38.81562470383067 16.696081364571608 39.00510028954548 16.360635916577568 39 16 L 39 6.2617188 C 39.09849661246266 5.87887609938779 38.96224226183319 5.4739400963149345 38.652344 5.2285156 C 38.638324168369 5.217061018689496 38.623995888055184 5.205989238473812 38.609375 5.1953125 C 38.48453443400006 5.098815698061273 38.33863300982167 5.033226928795578 38.183594 5.0039062 C 38.182943000155156 5.003905564361912 38.18229199984484 5.003905564361912 38.181641 5.0039062 L 24.335938 0.05859375 C 24.24176639562357 0.02450341305038216 24.14300830442613 0.004751811665593131 24.042969 -1.1102230246251565e-16 z M 24 26 C 22.784871 26 19.620076 26.0064 16.046875 27.554688 C 12.473674 29.102982 8.4728043 32.219485 5.5195312 38.240234 C 4.2334993 40.861052 6.2028615 44 9.1191406 44 L 38.880859 44 C 41.79744 44 43.764487 40.860928 42.478516 38.240234 C 39.51855 32.205066 35.508528 29.087347 31.931641 27.542969 C 28.354753 25.99859 25.19014 26 24 26 z M 24 28 C 25.18986 28 27.952059 28.003 31.138672 29.378906 C 34.325285 30.754778 37.91556 33.477262 40.683594 39.121094 C 41.349622 40.4784 40.394279 42 38.880859 42 L 9.1191406 42 C 7.6054198 42 6.6504382 40.478277 7.3164062 39.121094 C 10.078133 33.490843 13.658248 30.768127 16.841797 29.388672 C 20.025346 28.009216 22.793129 28 24 28 z" stroke-linecap="round" />
</g>
</svg>
